<mxfile host="Electron" modified="2023-05-01T14:48:06.730Z" agent="Mozilla/5.0 (Windows NT 10.0; Win64; x64) AppleWebKit/537.36 (KHTML, like Gecko) draw.io/21.2.1 Chrome/112.0.5615.87 Electron/24.1.2 Safari/537.36" etag="gabjal41z2TuFDFSXbx5" version="21.2.1" type="device">
  <diagram name="Page-1" id="4_tPyxa64Dnfn5mtqRyB">
    <mxGraphModel dx="1477" dy="469" grid="1" gridSize="10" guides="1" tooltips="1" connect="1" arrows="1" fold="1" page="1" pageScale="1" pageWidth="850" pageHeight="1100" math="0" shadow="0">
      <root>
        <mxCell id="0" />
        <mxCell id="1" parent="0" />
        <mxCell id="D11aKV0CUpfygHuOLcRb-1" value="&lt;i style=&quot;border-color: var(--border-color); color: rgb(0, 153, 0);&quot;&gt;&lt;font style=&quot;border-color: var(--border-color); font-size: 15px;&quot;&gt;&amp;lt;&amp;lt;HttpServlet&amp;gt;&amp;gt;&lt;/font&gt;&lt;/i&gt;&lt;font color=&quot;#009900&quot; style=&quot;&quot;&gt;&lt;b style=&quot;font-size: 18px;&quot;&gt;&lt;br&gt;buy&lt;br&gt;&lt;/b&gt;&lt;/font&gt;" style="rounded=0;whiteSpace=wrap;html=1;strokeWidth=3;fillColor=default;strokeColor=#009900;" parent="1" vertex="1">
          <mxGeometry x="-160" y="220" width="150" height="60" as="geometry" />
        </mxCell>
        <mxCell id="D11aKV0CUpfygHuOLcRb-2" value="&lt;font color=&quot;#009900&quot; style=&quot;&quot;&gt;&lt;i style=&quot;&quot;&gt;&lt;font style=&quot;font-size: 15px;&quot;&gt;&amp;lt;&amp;lt;Class&amp;gt;&amp;gt;&lt;/font&gt;&lt;/i&gt;&lt;br&gt;&lt;span style=&quot;font-size: 18px;&quot;&gt;&lt;b&gt;Auction&lt;/b&gt;&lt;/span&gt;&lt;br&gt;&lt;/font&gt;" style="rounded=0;whiteSpace=wrap;html=1;strokeWidth=3;fillColor=default;strokeColor=#009900;" parent="1" vertex="1">
          <mxGeometry x="440" y="220" width="150" height="60" as="geometry" />
        </mxCell>
        <mxCell id="D11aKV0CUpfygHuOLcRb-3" value="" style="endArrow=none;html=1;rounded=0;entryX=0.5;entryY=1;entryDx=0;entryDy=0;strokeWidth=2;fillColor=#d5e8d4;strokeColor=#009900;dashed=1;" parent="1" source="D11aKV0CUpfygHuOLcRb-6" target="D11aKV0CUpfygHuOLcRb-1" edge="1">
          <mxGeometry width="50" height="50" relative="1" as="geometry">
            <mxPoint x="-85" y="670" as="sourcePoint" />
            <mxPoint x="160" y="440" as="targetPoint" />
          </mxGeometry>
        </mxCell>
        <mxCell id="D11aKV0CUpfygHuOLcRb-4" value="" style="endArrow=none;html=1;rounded=0;entryX=0.5;entryY=1;entryDx=0;entryDy=0;strokeWidth=2;fillColor=#d5e8d4;strokeColor=#009900;dashed=1;" parent="1" source="D11aKV0CUpfygHuOLcRb-9" target="D11aKV0CUpfygHuOLcRb-2" edge="1">
          <mxGeometry width="50" height="50" relative="1" as="geometry">
            <mxPoint x="515" y="670" as="sourcePoint" />
            <mxPoint x="235" y="350" as="targetPoint" />
          </mxGeometry>
        </mxCell>
        <mxCell id="D11aKV0CUpfygHuOLcRb-5" value="" style="endArrow=none;html=1;rounded=0;entryX=0.412;entryY=1.004;entryDx=0;entryDy=0;strokeWidth=2;fillColor=#d5e8d4;strokeColor=#009900;dashed=1;entryPerimeter=0;" parent="1" edge="1">
          <mxGeometry width="50" height="50" relative="1" as="geometry">
            <mxPoint x="-87" y="960" as="sourcePoint" />
            <mxPoint x="-87.19999999999982" y="911.96" as="targetPoint" />
          </mxGeometry>
        </mxCell>
        <mxCell id="D11aKV0CUpfygHuOLcRb-6" value="" style="rounded=0;whiteSpace=wrap;html=1;fillColor=#FFFFFF;strokeWidth=2;strokeColor=#009900;" parent="1" vertex="1">
          <mxGeometry x="-97.5" y="340" width="25" height="580" as="geometry" />
        </mxCell>
        <mxCell id="D11aKV0CUpfygHuOLcRb-7" value="" style="endArrow=none;html=1;rounded=0;strokeWidth=2;strokeColor=#009900;startArrow=classic;startFill=1;entryX=1.008;entryY=0.241;entryDx=0;entryDy=0;entryPerimeter=0;" parent="1" edge="1">
          <mxGeometry width="50" height="50" relative="1" as="geometry">
            <mxPoint x="500" y="620" as="sourcePoint" />
            <mxPoint x="-72.50000000000018" y="619.8399999999999" as="targetPoint" />
          </mxGeometry>
        </mxCell>
        <mxCell id="D11aKV0CUpfygHuOLcRb-9" value="" style="rounded=0;whiteSpace=wrap;html=1;fillColor=#FFFFFF;strokeWidth=2;strokeColor=#009900;" parent="1" vertex="1">
          <mxGeometry x="502.5" y="500" width="25" height="170" as="geometry" />
        </mxCell>
        <mxCell id="D11aKV0CUpfygHuOLcRb-10" value="&lt;font style=&quot;&quot;&gt;&lt;i style=&quot;&quot;&gt;&lt;font style=&quot;font-size: 12px;&quot;&gt;&amp;lt;&amp;lt;static&amp;gt;&amp;gt;&lt;/font&gt;&lt;/i&gt;&lt;br&gt;&lt;span style=&quot;font-size: 14px;&quot;&gt;getAuctionsWonByUser(user.getId())&lt;/span&gt;&lt;/font&gt;" style="text;html=1;align=center;verticalAlign=middle;resizable=0;points=[];autosize=1;strokeColor=none;fillColor=none;" parent="1" vertex="1">
          <mxGeometry x="9.8" y="582" width="250" height="40" as="geometry" />
        </mxCell>
        <mxCell id="D11aKV0CUpfygHuOLcRb-11" value="&lt;font color=&quot;#009900&quot; style=&quot;&quot;&gt;&lt;i style=&quot;&quot;&gt;&lt;font style=&quot;font-size: 15px;&quot;&gt;&amp;lt;&amp;lt;WebContext&amp;gt;&amp;gt;&lt;/font&gt;&lt;/i&gt;&lt;br&gt;&lt;span style=&quot;font-size: 18px;&quot;&gt;&lt;b&gt;context&lt;/b&gt;&lt;/span&gt;&lt;br&gt;&lt;/font&gt;" style="rounded=0;whiteSpace=wrap;html=1;strokeWidth=3;fillColor=default;strokeColor=#009900;" parent="1" vertex="1">
          <mxGeometry x="630" y="220" width="150" height="60" as="geometry" />
        </mxCell>
        <mxCell id="D11aKV0CUpfygHuOLcRb-12" value="" style="endArrow=none;html=1;rounded=0;entryX=0.5;entryY=1;entryDx=0;entryDy=0;strokeWidth=2;fillColor=#d5e8d4;strokeColor=#009900;dashed=1;" parent="1" source="D11aKV0CUpfygHuOLcRb-14" target="D11aKV0CUpfygHuOLcRb-11" edge="1">
          <mxGeometry width="50" height="50" relative="1" as="geometry">
            <mxPoint x="705" y="670" as="sourcePoint" />
            <mxPoint x="425" y="350" as="targetPoint" />
          </mxGeometry>
        </mxCell>
        <mxCell id="D11aKV0CUpfygHuOLcRb-13" value="" style="endArrow=none;html=1;rounded=0;entryX=0.5;entryY=1;entryDx=0;entryDy=0;strokeWidth=2;fillColor=#d5e8d4;strokeColor=#009900;dashed=1;" parent="1" target="D11aKV0CUpfygHuOLcRb-14" edge="1">
          <mxGeometry width="50" height="50" relative="1" as="geometry">
            <mxPoint x="705" y="960" as="sourcePoint" />
            <mxPoint x="702.5" y="740" as="targetPoint" />
          </mxGeometry>
        </mxCell>
        <mxCell id="D11aKV0CUpfygHuOLcRb-14" value="" style="rounded=0;whiteSpace=wrap;html=1;fillColor=#FFFFFF;strokeWidth=2;strokeColor=#009900;" parent="1" vertex="1">
          <mxGeometry x="692.5" y="720" width="25" height="90" as="geometry" />
        </mxCell>
        <mxCell id="D11aKV0CUpfygHuOLcRb-15" value="" style="endArrow=none;html=1;rounded=0;strokeWidth=2;strokeColor=#009900;startArrow=classic;startFill=1;entryX=1.049;entryY=0.611;entryDx=0;entryDy=0;entryPerimeter=0;" parent="1" edge="1">
          <mxGeometry width="50" height="50" relative="1" as="geometry">
            <mxPoint x="878.75" y="887" as="sourcePoint" />
            <mxPoint x="-73.77500000000009" y="886.6400000000001" as="targetPoint" />
          </mxGeometry>
        </mxCell>
        <mxCell id="D11aKV0CUpfygHuOLcRb-16" value="&lt;font style=&quot;font-size: 14px;&quot;&gt;process(&quot;buy&quot;, context, resp.getWriter())&lt;/font&gt;" style="text;html=1;align=center;verticalAlign=middle;resizable=0;points=[];autosize=1;strokeColor=none;fillColor=none;" parent="1" vertex="1">
          <mxGeometry x="-2.5" y="861" width="270" height="30" as="geometry" />
        </mxCell>
        <mxCell id="D11aKV0CUpfygHuOLcRb-17" value="" style="endArrow=none;html=1;rounded=0;exitX=0;exitY=0.25;exitDx=0;exitDy=0;strokeWidth=2;strokeColor=#009900;startArrow=classic;startFill=1;" parent="1" edge="1">
          <mxGeometry width="50" height="50" relative="1" as="geometry">
            <mxPoint x="-97.5" y="360" as="sourcePoint" />
            <mxPoint x="-220" y="360" as="targetPoint" />
          </mxGeometry>
        </mxCell>
        <mxCell id="D11aKV0CUpfygHuOLcRb-18" value="&lt;font style=&quot;font-size: 14px;&quot;&gt;doGet&lt;/font&gt;" style="text;html=1;align=center;verticalAlign=middle;resizable=0;points=[];autosize=1;strokeColor=none;fillColor=none;" parent="1" vertex="1">
          <mxGeometry x="-180" y="334" width="60" height="30" as="geometry" />
        </mxCell>
        <mxCell id="D11aKV0CUpfygHuOLcRb-19" value="&lt;font style=&quot;font-size: 14px;&quot;&gt;&lt;i&gt;GET&lt;br&gt;&lt;/i&gt;&lt;b&gt;/buy&lt;/b&gt;&lt;/font&gt;&lt;br&gt;q" style="text;html=1;align=right;verticalAlign=middle;resizable=0;points=[];autosize=1;strokeColor=none;fillColor=none;" parent="1" vertex="1">
          <mxGeometry x="-170" y="400" width="50" height="60" as="geometry" />
        </mxCell>
        <mxCell id="D11aKV0CUpfygHuOLcRb-20" value="&lt;font color=&quot;#009900&quot; style=&quot;&quot;&gt;&lt;span style=&quot;font-size: 15px;&quot;&gt;&lt;i&gt;&amp;lt;&amp;lt;HttpSession&amp;gt;&amp;gt;&lt;/i&gt;&lt;/span&gt;&lt;br&gt;&lt;span style=&quot;font-size: 18px;&quot;&gt;&lt;b&gt;session&lt;/b&gt;&lt;/span&gt;&lt;br&gt;&lt;/font&gt;" style="rounded=0;whiteSpace=wrap;html=1;strokeWidth=3;fillColor=default;strokeColor=#009900;" parent="1" vertex="1">
          <mxGeometry x="250" y="220" width="150" height="60" as="geometry" />
        </mxCell>
        <mxCell id="D11aKV0CUpfygHuOLcRb-21" value="" style="endArrow=none;html=1;rounded=0;entryX=0.5;entryY=1;entryDx=0;entryDy=0;strokeWidth=2;fillColor=#d5e8d4;strokeColor=#009900;dashed=1;" parent="1" source="D11aKV0CUpfygHuOLcRb-23" target="D11aKV0CUpfygHuOLcRb-20" edge="1">
          <mxGeometry width="50" height="50" relative="1" as="geometry">
            <mxPoint x="325" y="670" as="sourcePoint" />
            <mxPoint x="45" y="350" as="targetPoint" />
          </mxGeometry>
        </mxCell>
        <mxCell id="D11aKV0CUpfygHuOLcRb-22" value="" style="endArrow=none;html=1;rounded=0;entryX=0.5;entryY=1;entryDx=0;entryDy=0;strokeWidth=2;fillColor=#d5e8d4;strokeColor=#009900;dashed=1;" parent="1" target="D11aKV0CUpfygHuOLcRb-23" edge="1">
          <mxGeometry width="50" height="50" relative="1" as="geometry">
            <mxPoint x="325" y="960" as="sourcePoint" />
            <mxPoint x="325" y="490" as="targetPoint" />
          </mxGeometry>
        </mxCell>
        <mxCell id="D11aKV0CUpfygHuOLcRb-23" value="" style="rounded=0;whiteSpace=wrap;html=1;fillColor=#FFFFFF;strokeWidth=2;strokeColor=#009900;" parent="1" vertex="1">
          <mxGeometry x="312.5" y="340" width="25" height="120" as="geometry" />
        </mxCell>
        <mxCell id="D11aKV0CUpfygHuOLcRb-24" value="" style="endArrow=none;html=1;rounded=0;strokeWidth=2;strokeColor=#009900;startArrow=classic;startFill=1;" parent="1" edge="1">
          <mxGeometry width="50" height="50" relative="1" as="geometry">
            <mxPoint x="310" y="370" as="sourcePoint" />
            <mxPoint x="-70" y="370" as="targetPoint" />
          </mxGeometry>
        </mxCell>
        <mxCell id="D11aKV0CUpfygHuOLcRb-25" value="&lt;font style=&quot;font-size: 14px;&quot;&gt;getAttribute(&quot;user&quot;)&lt;/font&gt;" style="text;html=1;align=center;verticalAlign=middle;resizable=0;points=[];autosize=1;strokeColor=none;fillColor=none;" parent="1" vertex="1">
          <mxGeometry x="63" y="344" width="140" height="30" as="geometry" />
        </mxCell>
        <mxCell id="D11aKV0CUpfygHuOLcRb-26" value="" style="endArrow=none;html=1;rounded=0;strokeWidth=2;strokeColor=#009900;startArrow=classic;startFill=1;" parent="1" edge="1">
          <mxGeometry width="50" height="50" relative="1" as="geometry">
            <mxPoint x="-70" y="440" as="sourcePoint" />
            <mxPoint x="310" y="440" as="targetPoint" />
          </mxGeometry>
        </mxCell>
        <mxCell id="D11aKV0CUpfygHuOLcRb-27" value="&lt;font style=&quot;font-size: 14px;&quot;&gt;&lt;i&gt;User&lt;/i&gt; user&lt;/font&gt;" style="text;html=1;align=center;verticalAlign=middle;resizable=0;points=[];autosize=1;strokeColor=none;fillColor=none;" parent="1" vertex="1">
          <mxGeometry x="93.5" y="416" width="80" height="30" as="geometry" />
        </mxCell>
        <mxCell id="D11aKV0CUpfygHuOLcRb-28" value="" style="group" parent="1" vertex="1" connectable="0">
          <mxGeometry x="-97.5" y="950" width="20" height="20" as="geometry" />
        </mxCell>
        <mxCell id="D11aKV0CUpfygHuOLcRb-29" value="" style="endArrow=none;html=1;rounded=0;strokeWidth=2;fillColor=#d5e8d4;strokeColor=#009900;" parent="D11aKV0CUpfygHuOLcRb-28" edge="1">
          <mxGeometry width="50" height="50" relative="1" as="geometry">
            <mxPoint y="20" as="sourcePoint" />
            <mxPoint x="20" as="targetPoint" />
          </mxGeometry>
        </mxCell>
        <mxCell id="D11aKV0CUpfygHuOLcRb-30" value="" style="endArrow=none;html=1;rounded=0;strokeWidth=2;fillColor=#d5e8d4;strokeColor=#009900;" parent="D11aKV0CUpfygHuOLcRb-28" edge="1">
          <mxGeometry width="50" height="50" relative="1" as="geometry">
            <mxPoint x="20" y="20" as="sourcePoint" />
            <mxPoint as="targetPoint" />
          </mxGeometry>
        </mxCell>
        <mxCell id="D11aKV0CUpfygHuOLcRb-36" value="" style="endArrow=none;html=1;rounded=0;strokeWidth=2;strokeColor=#009900;startArrow=classic;startFill=1;entryX=1.008;entryY=0.241;entryDx=0;entryDy=0;entryPerimeter=0;" parent="1" edge="1">
          <mxGeometry width="50" height="50" relative="1" as="geometry">
            <mxPoint x="500" y="514" as="sourcePoint" />
            <mxPoint x="-73.30000000000018" y="513.8399999999999" as="targetPoint" />
          </mxGeometry>
        </mxCell>
        <mxCell id="D11aKV0CUpfygHuOLcRb-37" value="&lt;font style=&quot;&quot;&gt;&lt;i style=&quot;&quot;&gt;&lt;font style=&quot;font-size: 12px;&quot;&gt;&amp;lt;&amp;lt;static&amp;gt;&amp;gt;&lt;/font&gt;&lt;/i&gt;&lt;br&gt;&lt;span style=&quot;font-size: 14px;&quot;&gt;getAuctionsWithSearch(searchQuery)&lt;/span&gt;&lt;/font&gt;" style="text;html=1;align=center;verticalAlign=middle;resizable=0;points=[];autosize=1;strokeColor=none;fillColor=none;" parent="1" vertex="1">
          <mxGeometry x="4" y="476" width="260" height="40" as="geometry" />
        </mxCell>
        <mxCell id="D11aKV0CUpfygHuOLcRb-38" value="" style="endArrow=none;html=1;rounded=0;strokeWidth=2;strokeColor=#009900;startArrow=classic;startFill=1;" parent="1" edge="1">
          <mxGeometry width="50" height="50" relative="1" as="geometry">
            <mxPoint x="-70.80000000000018" y="553.8399999999999" as="sourcePoint" />
            <mxPoint x="500" y="554" as="targetPoint" />
          </mxGeometry>
        </mxCell>
        <mxCell id="D11aKV0CUpfygHuOLcRb-39" value="&lt;font style=&quot;font-size: 14px;&quot;&gt;&lt;i&gt;List&amp;lt;Auction&amp;gt;&lt;/i&gt;&amp;nbsp;auctionList&lt;/font&gt;" style="text;html=1;align=center;verticalAlign=middle;resizable=0;points=[];autosize=1;strokeColor=none;fillColor=none;" parent="1" vertex="1">
          <mxGeometry x="48.5" y="530" width="180" height="30" as="geometry" />
        </mxCell>
        <mxCell id="D11aKV0CUpfygHuOLcRb-40" value="" style="endArrow=none;html=1;rounded=0;strokeWidth=2;strokeColor=#009900;startArrow=classic;startFill=1;" parent="1" edge="1">
          <mxGeometry width="50" height="50" relative="1" as="geometry">
            <mxPoint x="-68.30000000000018" y="653.8399999999999" as="sourcePoint" />
            <mxPoint x="500" y="654" as="targetPoint" />
          </mxGeometry>
        </mxCell>
        <mxCell id="D11aKV0CUpfygHuOLcRb-41" value="&lt;font style=&quot;font-size: 14px;&quot;&gt;&lt;i style=&quot;border-color: var(--border-color);&quot;&gt;List&amp;lt;AuctionWithArticles&amp;gt;&lt;/i&gt;&amp;nbsp;auctionWithArticleList&lt;/font&gt;" style="text;html=1;align=center;verticalAlign=middle;resizable=0;points=[];autosize=1;strokeColor=none;fillColor=none;" parent="1" vertex="1">
          <mxGeometry x="-27" y="629" width="320" height="30" as="geometry" />
        </mxCell>
        <mxCell id="D11aKV0CUpfygHuOLcRb-44" value="" style="endArrow=none;html=1;rounded=0;strokeWidth=2;strokeColor=#009900;startArrow=classic;startFill=1;" parent="1" edge="1">
          <mxGeometry width="50" height="50" relative="1" as="geometry">
            <mxPoint x="690" y="740" as="sourcePoint" />
            <mxPoint x="-70" y="740" as="targetPoint" />
          </mxGeometry>
        </mxCell>
        <mxCell id="D11aKV0CUpfygHuOLcRb-45" value="&lt;font style=&quot;font-size: 14px;&quot;&gt;setVariable(&quot;auctions&quot;, auctionList)&lt;/font&gt;" style="text;html=1;align=center;verticalAlign=middle;resizable=0;points=[];autosize=1;strokeColor=none;fillColor=none;" parent="1" vertex="1">
          <mxGeometry x="18.5" y="715" width="240" height="30" as="geometry" />
        </mxCell>
        <mxCell id="D11aKV0CUpfygHuOLcRb-47" value="" style="endArrow=none;html=1;rounded=0;entryX=0.5;entryY=1;entryDx=0;entryDy=0;strokeWidth=2;fillColor=#d5e8d4;strokeColor=#009900;dashed=1;" parent="1" target="D11aKV0CUpfygHuOLcRb-9" edge="1">
          <mxGeometry width="50" height="50" relative="1" as="geometry">
            <mxPoint x="515" y="960" as="sourcePoint" />
            <mxPoint x="515" y="676" as="targetPoint" />
          </mxGeometry>
        </mxCell>
        <mxCell id="D11aKV0CUpfygHuOLcRb-48" value="&lt;font color=&quot;#009900&quot; style=&quot;&quot;&gt;&lt;i style=&quot;&quot;&gt;&lt;font style=&quot;font-size: 15px;&quot;&gt;&amp;lt;&amp;lt;TemplateEngine&amp;gt;&amp;gt;&lt;/font&gt;&lt;/i&gt;&lt;br&gt;&lt;span style=&quot;font-size: 18px;&quot;&gt;&lt;b&gt;templateEngine&lt;/b&gt;&lt;/span&gt;&lt;br&gt;&lt;/font&gt;" style="rounded=0;whiteSpace=wrap;html=1;strokeWidth=3;fillColor=default;strokeColor=#009900;" parent="1" vertex="1">
          <mxGeometry x="820" y="220" width="150" height="60" as="geometry" />
        </mxCell>
        <mxCell id="D11aKV0CUpfygHuOLcRb-49" value="" style="endArrow=none;html=1;rounded=0;entryX=0.5;entryY=1;entryDx=0;entryDy=0;strokeWidth=2;fillColor=#d5e8d4;strokeColor=#009900;dashed=1;" parent="1" source="D11aKV0CUpfygHuOLcRb-51" target="D11aKV0CUpfygHuOLcRb-48" edge="1">
          <mxGeometry width="50" height="50" relative="1" as="geometry">
            <mxPoint x="895" y="670" as="sourcePoint" />
            <mxPoint x="615" y="350" as="targetPoint" />
          </mxGeometry>
        </mxCell>
        <mxCell id="D11aKV0CUpfygHuOLcRb-50" value="" style="endArrow=none;html=1;rounded=0;entryX=0.5;entryY=1;entryDx=0;entryDy=0;strokeWidth=2;fillColor=#d5e8d4;strokeColor=#009900;dashed=1;" parent="1" target="D11aKV0CUpfygHuOLcRb-51" edge="1">
          <mxGeometry width="50" height="50" relative="1" as="geometry">
            <mxPoint x="893" y="960" as="sourcePoint" />
            <mxPoint x="892.5" y="740" as="targetPoint" />
          </mxGeometry>
        </mxCell>
        <mxCell id="D11aKV0CUpfygHuOLcRb-51" value="" style="rounded=0;whiteSpace=wrap;html=1;fillColor=#FFFFFF;strokeWidth=2;strokeColor=#009900;" parent="1" vertex="1">
          <mxGeometry x="880" y="870" width="25" height="60" as="geometry" />
        </mxCell>
        <mxCell id="D11aKV0CUpfygHuOLcRb-56" value="" style="endArrow=none;html=1;rounded=0;strokeWidth=2;strokeColor=#009900;startArrow=classic;startFill=1;" parent="1" edge="1">
          <mxGeometry width="50" height="50" relative="1" as="geometry">
            <mxPoint x="690" y="779" as="sourcePoint" />
            <mxPoint x="-70" y="779" as="targetPoint" />
          </mxGeometry>
        </mxCell>
        <mxCell id="D11aKV0CUpfygHuOLcRb-57" value="&lt;font style=&quot;font-size: 14px;&quot;&gt;setVariable(&quot;wonAuctions&quot;, auctionWithArticleList)&lt;/font&gt;" style="text;html=1;align=center;verticalAlign=middle;resizable=0;points=[];autosize=1;strokeColor=none;fillColor=none;" parent="1" vertex="1">
          <mxGeometry x="-29" y="754" width="330" height="30" as="geometry" />
        </mxCell>
      </root>
    </mxGraphModel>
  </diagram>
</mxfile>
